<?xml version="1.0" encoding="UTF-8" standalone="no"?>
<svg
   xmlns:dc="http://purl.org/dc/elements/1.1/"
   xmlns:cc="http://creativecommons.org/ns#"
   xmlns:rdf="http://www.w3.org/1999/02/22-rdf-syntax-ns#"
   xmlns:svg="http://www.w3.org/2000/svg"
   xmlns="http://www.w3.org/2000/svg"
   xmlns:sodipodi="http://sodipodi.sourceforge.net/DTD/sodipodi-0.dtd"
   xmlns:inkscape="http://www.inkscape.org/namespaces/inkscape"
   version="1.1"
   id="Logo"
   x="0px"
   y="0px"
   viewBox="0 0 180.8788 144.06979"
   xml:space="preserve"
   sodipodi:docname="metal-stack-white-border.svg"
   inkscape:version="1.0.2 (1.0.2+r75+1)"
   width="180.8788"
   height="144.06979"><metadata
   id="metadata166"><rdf:RDF><cc:Work
       rdf:about=""><dc:format>image/svg+xml</dc:format><dc:type
         rdf:resource="http://purl.org/dc/dcmitype/StillImage" /><dc:title></dc:title></cc:Work></rdf:RDF></metadata><defs
   id="defs164" /><sodipodi:namedview
   pagecolor="#000000"
   bordercolor="#666666"
   borderopacity="1"
   objecttolerance="10"
   gridtolerance="10"
   guidetolerance="10"
   inkscape:pageopacity="0.21960784"
   inkscape:pageshadow="2"
   inkscape:window-width="2192"
   inkscape:window-height="1169"
   id="namedview162"
   showgrid="false"
   inkscape:zoom="2.2486095"
   inkscape:cx="103.45711"
   inkscape:cy="54.191177"
   inkscape:window-x="1920"
   inkscape:window-y="27"
   inkscape:window-maximized="1"
   inkscape:current-layer="layer2"
   inkscape:pagecheckerboard="true"
   inkscape:document-rotation="0" />
<style
   type="text/css"
   id="style119">
	.st0{fill:#6A6D71;}
	.st1{fill:#FFFFFF;}
	.st2{opacity:0.6;fill:#009FE3;}
	.st3{opacity:0.6;fill:#0063A5;}
	.st4{fill-rule:evenodd;clip-rule:evenodd;fill:#FFFFFF;}
	.st5{opacity:0.5;fill-rule:evenodd;clip-rule:evenodd;fill:#FFFFFF;}
</style>

<g
   inkscape:groupmode="layer"
   id="layer1"
   inkscape:label="Back"
   style="display:inline"
   transform="translate(2.364402,1.7697936)" /><g
   inkscape:groupmode="layer"
   id="layer2"
   inkscape:label="Top"
   style="display:inline;mix-blend-mode:normal"
   transform="translate(2.364402,1.7697936)"><g
     id="Logo_1_-3"
     transform="matrix(0.5,0,0,0.5,-0.2,0.45)"
     inkscape:export-xdpi="399.64883"
     inkscape:export-ydpi="399.64883">
	<g
   id="Bildmarke-7">
		<polygon
   class="st0"
   points="198.3,107.7 110,65.2 21.8,107.7 0,203.2 61.1,279.7 159,279.7 220,203.2 "
   id="polygon195" />
		<polygon
   class="st0"
   points="331.3,107.7 243,65.2 154.8,107.7 133,203.2 194.1,279.7 292,279.7 353.1,203.2 "
   id="polygon197" />
		<polygon
   class="st1"
   points="291.6,55.4 176.5,0 61.5,55.4 33.1,179.9 112.7,279.7 240.4,279.7 320,179.9 "
   id="polygon199" />
		<g
   id="Pictogramm-9">
			<path
   class="st2"
   d="m 176.5,163.2 -32.3,18.7 -32.3,-18.7 v -14.3 l 64.6,-37.3 64.6,37.3 v 14.3 l -32.3,18.7 z m -52.2,-7.2 20,11.5 32.3,-18.7 32.3,18.7 20,-11.5 -52.3,-30.2 z"
   id="path201"
   style="opacity:1;fill:#ffffff" />
			<polygon
   class="st3"
   points="144.2,196.1 176.5,177.4 208.8,196.1 241.2,177.4 241.2,191.7 208.8,210.4 176.5,191.7 144.2,210.4 111.9,191.7 111.9,177.4 "
   id="polygon203" />
			<polygon
   class="st3"
   points="144.2,224.7 176.5,206 208.8,224.7 241.2,206 241.2,220.3 208.8,238.9 176.5,220.3 144.2,238.9 111.9,220.3 111.9,206 "
   id="polygon205" />
		</g>
	<path
   style="opacity:1;fill:none;fill-opacity:1;stroke:#ffffff;stroke-width:8;stroke-linecap:butt;stroke-linejoin:miter;stroke-miterlimit:4;stroke-dasharray:none;stroke-opacity:0.977152;paint-order:normal"
   d="m 0,203.2 61.1,76.5 H 292 L 353.1,203.2 331.3,107.7 300.14212,92.687524 291.6,55.4 176.5,0 61.5,55.4 52.987282,92.78272 21.8,107.7 Z"
   id="path185" /></g>
</g><g
     id="Logo_1_-7"
     transform="translate(-74.778427,-396.95713)">
	<g
   id="Bildmarke">
		
		
		
		<g
   id="Pictogramm">
			
			
			
		</g>
	</g>
</g></g><style
   type="text/css"
   id="style193">
	.st0{opacity:0.6;fill:#009FE3;}
	.st1{opacity:0.6;fill:#0063A5;}
	.st2{fill-rule:evenodd;clip-rule:evenodd;fill:#FFFFFF;}
	.st3{opacity:0.5;fill-rule:evenodd;clip-rule:evenodd;fill:#FFFFFF;}
</style><style
   type="text/css"
   id="style333">
	.st0{opacity:0.6;fill:#009FE3;}
	.st1{opacity:0.6;fill:#0063A5;}
	.st2{fill-rule:evenodd;clip-rule:evenodd;fill:#FFFFFF;}
	.st3{opacity:0.5;fill-rule:evenodd;clip-rule:evenodd;fill:#FFFFFF;}
</style></svg>
