<?xml version="1.0" encoding="UTF-8" standalone="no"?>
<svg
   xmlns:dc="http://purl.org/dc/elements/1.1/"
   xmlns:cc="http://creativecommons.org/ns#"
   xmlns:rdf="http://www.w3.org/1999/02/22-rdf-syntax-ns#"
   xmlns:svg="http://www.w3.org/2000/svg"
   xmlns="http://www.w3.org/2000/svg"
   xmlns:sodipodi="http://sodipodi.sourceforge.net/DTD/sodipodi-0.dtd"
   xmlns:inkscape="http://www.inkscape.org/namespaces/inkscape"
   version="1.1"
   id="Logo"
   x="0px"
   y="0px"
   viewBox="0 0 437.7 140.2"
   style="enable-background:new 0 0 437.7 140.2;"
   xml:space="preserve"
   sodipodi:docname="metal-stack-full-white.svg"
   inkscape:version="1.0.1 (c497b03c, 2020-09-10)"><metadata
   id="metadata166"><rdf:RDF><cc:Work
       rdf:about=""><dc:format>image/svg+xml</dc:format><dc:type
         rdf:resource="http://purl.org/dc/dcmitype/StillImage" /><dc:title></dc:title></cc:Work></rdf:RDF></metadata><defs
   id="defs164" /><sodipodi:namedview
   pagecolor="#ffffff"
   bordercolor="#666666"
   borderopacity="1"
   objecttolerance="10"
   gridtolerance="10"
   guidetolerance="10"
   inkscape:pageopacity="0"
   inkscape:pageshadow="2"
   inkscape:window-width="796"
   inkscape:window-height="480"
   id="namedview162"
   showgrid="false"
   inkscape:zoom="0.97853054"
   inkscape:cx="260.7143"
   inkscape:cy="76.127972"
   inkscape:window-x="384"
   inkscape:window-y="178"
   inkscape:window-maximized="0"
   inkscape:current-layer="STACK"
   inkscape:pagecheckerboard="true" />
<style
   type="text/css"
   id="style119">
	.st0{fill:#6A6D71;}
	.st1{fill:#FFFFFF;}
	.st2{opacity:0.6;fill:#009FE3;}
	.st3{opacity:0.6;fill:#0063A5;}
	.st4{fill-rule:evenodd;clip-rule:evenodd;fill:#FFFFFF;}
	.st5{opacity:0.5;fill-rule:evenodd;clip-rule:evenodd;fill:#FFFFFF;}
</style>

<g
   inkscape:groupmode="layer"
   id="layer1"
   inkscape:label="Back"
   style="display:inline"><g
     id="Logo_1_"
     style="opacity:1;fill:#ffffff">
	<g
   id="Wortmarke"
   style="fill:#ffffff">
		<g
   id="STACK"
   style="fill:#ffffff">
			<path
   class="st0"
   d="m 264.2,139.6 h -4.9 v -38.1 h -13.5 v -4.4 h 31.9 v 4.4 h -13.5 z"
   id="path121"
   style="fill:#ffffff;opacity:1" />
			<path
   class="st0"
   d="m 308.5,139.6 -5.3,-13.5 h -17 l -5.2,13.5 h -5 l 16.8,-42.7 h 4.2 l 16.7,42.7 z m -6.9,-18 -4.9,-13.2 c -0.6,-1.7 -1.3,-3.7 -2,-6.1 -0.4,1.9 -1,3.9 -1.8,6.1 l -5,13.2 z"
   id="path123"
   style="fill:#ffffff;opacity:1" />
			<path
   class="st0"
   d="m 337.6,100.9 c -4.7,0 -8.4,1.6 -11.1,4.7 -2.7,3.1 -4.1,7.4 -4.1,12.8 0,5.6 1.3,9.9 3.9,12.9 2.6,3 6.3,4.6 11.2,4.6 3,0 6.4,-0.5 10.2,-1.6 v 4.3 c -2.9,1.1 -6.6,1.7 -10.9,1.7 -6.3,0 -11.1,-1.9 -14.5,-5.7 -3.4,-3.8 -5.1,-9.2 -5.1,-16.2 0,-4.4 0.8,-8.2 2.5,-11.5 1.6,-3.3 4,-5.8 7.1,-7.6 3.1,-1.8 6.7,-2.7 10.9,-2.7 4.5,0 8.4,0.8 11.7,2.4 l -2.1,4.2 c -3.3,-1.6 -6.5,-2.3 -9.7,-2.3 z"
   id="path125"
   style="fill:#ffffff;opacity:1" />
			<path
   class="st0"
   d="m 389.1,139.6 h -5.8 l -15.5,-20.6 -4.5,4 v 16.7 h -4.9 V 97.1 h 4.9 v 21.1 l 19.3,-21.1 h 5.8 l -17.1,18.5 z"
   id="path127"
   style="fill:#ffffff;opacity:1" />
			<path
   class="st0"
   d="m 240,128.3 c 0,3.7 -1.5,6.7 -4.5,8.8 -3,2.1 -7,3.1 -12.2,3.1 -5.5,0 -9.8,-0.6 -12.8,-1.9 v -4.8 c 1.9,0.7 4,1.3 6.3,1.7 2.3,0.4 4.5,0.6 6.7,0.6 3.6,0 6.4,-0.6 8.2,-1.9 1.8,-1.3 2.8,-3 2.8,-5.2 0,-1.5 -0.3,-2.7 -1,-3.6 -0.7,-0.9 -1.7,-1.8 -3.3,-2.6 -1.6,-0.8 -3.8,-1.7 -7,-2.7 -4.4,-1.4 -7.5,-3.1 -9.3,-5 -1.9,-1.9 -2.8,-4.5 -2.8,-7.6 0,-3.3 1.4,-5.9 4.1,-7.8 2.7,-1.9 6.3,-2.9 10.8,-2.9 4.7,0 8.9,0.8 12.8,2.3 l -1.7,4.3 c -3.9,-1.5 -7.6,-2.2 -11.3,-2.2 -2.9,0 -5.1,0.6 -6.8,1.7 -1.7,1.1 -2.4,2.7 -2.4,4.7 0,1.5 0.3,2.7 0.9,3.6 0.6,0.9 1.6,1.8 3,2.6 1.4,0.8 3.6,1.7 6.5,2.6 4.9,1.6 8.3,3.3 10.1,5.1 1.9,1.8 2.9,4.2 2.9,7.1 z"
   id="path129"
   style="fill:#ffffff;opacity:1" />
		</g>
		<g
   id="METAL"
   style="fill:#ffffff">
			<path
   class="st0"
   d="m 233.8,81.7 -15.6,-45 h -0.3 c 0.4,6.7 0.6,12.9 0.6,18.8 v 26.2 h -8 V 27.9 h 12.4 l 15,42.8 h 0.2 l 15.4,-42.8 h 12.4 v 53.8 h -8.5 V 55.1 c 0,-2.7 0.1,-6.2 0.2,-10.5 0.1,-4.3 0.3,-6.9 0.3,-7.8 h -0.3 l -16.2,44.9 z"
   id="path132"
   style="fill:#ffffff;opacity:1" />
			<path
   class="st0"
   d="M 304.9,81.7 H 274.4 V 27.9 h 30.5 v 7.4 H 283.2 V 50 h 20.3 v 7.4 h -20.3 v 16.9 h 21.7 z"
   id="path134"
   style="fill:#ffffff;opacity:1" />
			<path
   class="st0"
   d="m 337.7,81.7 h -8.8 V 35.4 H 313 v -7.5 h 40.5 v 7.5 h -15.8 z"
   id="path136"
   style="fill:#ffffff;opacity:1" />
			<path
   class="st0"
   d="m 389.3,81.7 -5.4,-15 h -20.6 l -5.3,15 h -9.3 l 20.3,-54 h 9.6 l 20.1,54.1 h -9.4 z m -7.7,-22.5 -5,-14.7 c -0.4,-1 -0.9,-2.5 -1.5,-4.6 -0.7,-2.1 -1.1,-3.7 -1.3,-4.6 -0.7,3 -1.6,6.3 -2.9,9.9 l -4.9,14 z"
   id="path138"
   style="fill:#ffffff;opacity:1" />
			<path
   class="st0"
   d="M 406.1,81.7 V 27.9 h 8.8 v 46.3 h 22.8 v 7.5 z"
   id="path140"
   style="fill:#ffffff;opacity:1" />
		</g>
	</g>
	
</g></g><g
   inkscape:groupmode="layer"
   id="layer2"
   inkscape:label="Top"
   style="display:inline;mix-blend-mode:normal"><g
     id="Logo_1_-3"
     transform="matrix(0.5,0,0,0.5,-0.2,0.45)">
	<g
   id="Bildmarke-7">
		<polygon
   class="st0"
   points="220,203.2 198.3,107.7 110,65.2 21.8,107.7 0,203.2 61.1,279.7 159,279.7 "
   id="polygon195" />
		<polygon
   class="st0"
   points="353.1,203.2 331.3,107.7 243,65.2 154.8,107.7 133,203.2 194.1,279.7 292,279.7 "
   id="polygon197" />
		<polygon
   class="st1"
   points="320,179.9 291.6,55.4 176.5,0 61.5,55.4 33.1,179.9 112.7,279.7 240.4,279.7 "
   id="polygon199" />
		<g
   id="Pictogramm-9">
			<path
   class="st2"
   d="m 176.5,163.2 -32.3,18.7 -32.3,-18.7 v -14.3 l 64.6,-37.3 64.6,37.3 v 14.3 l -32.3,18.7 z m -52.2,-7.2 20,11.5 32.3,-18.7 32.3,18.7 20,-11.5 -52.3,-30.2 z"
   id="path201"
   style="fill:#ffffff;opacity:1" />
			<polygon
   class="st3"
   points="208.8,196.1 241.2,177.4 241.2,191.7 208.8,210.4 176.5,191.7 144.2,210.4 111.9,191.7 111.9,177.4 144.2,196.1 176.5,177.4 "
   id="polygon203" />
			<polygon
   class="st3"
   points="208.8,224.7 241.2,206 241.2,220.3 208.8,238.9 176.5,220.3 144.2,238.9 111.9,220.3 111.9,206 144.2,224.7 176.5,206 "
   id="polygon205" />
		</g>
	</g>
</g><g
     id="Logo_1_-7"
     transform="translate(-74.778427,-396.95713)">
	<g
   id="Bildmarke">
		
		
		
		<g
   id="Pictogramm">
			
			
			
		</g>
	</g>
</g></g><style
   type="text/css"
   id="style193">
	.st0{opacity:0.6;fill:#009FE3;}
	.st1{opacity:0.6;fill:#0063A5;}
	.st2{fill-rule:evenodd;clip-rule:evenodd;fill:#FFFFFF;}
	.st3{opacity:0.5;fill-rule:evenodd;clip-rule:evenodd;fill:#FFFFFF;}
</style><style
   type="text/css"
   id="style333">
	.st0{opacity:0.6;fill:#009FE3;}
	.st1{opacity:0.6;fill:#0063A5;}
	.st2{fill-rule:evenodd;clip-rule:evenodd;fill:#FFFFFF;}
	.st3{opacity:0.5;fill-rule:evenodd;clip-rule:evenodd;fill:#FFFFFF;}
</style></svg>
